<svg width="268" height="130" viewBox="0 0 268 130" fill="none" xmlns="http://www.w3.org/2000/svg">
<mask id="path-1-inside-1" fill="white">
<path fill-rule="evenodd" clip-rule="evenodd" d="M0 10C0 4.47715 4.47715 0 10 0H258C263.523 0 268 4.48478 268 10.0076V60.3812L264.567 64.3453C264.242 64.7211 264.242 65.2789 264.567 65.6547L268 69.6188V119.992C268 125.515 263.523 130 258 130H10C4.47716 130 0 125.523 0 120V69.6188L3.43305 65.6547C3.75848 65.2789 3.75848 64.7211 3.43305 64.3453L0 60.3812V10Z"/>
</mask>
<path d="M268 60.3812L268.756 61.0359L269 60.754V60.3812H268ZM264.567 64.3453L265.323 65L265.323 65L264.567 64.3453ZM264.567 65.6547L265.323 65L265.323 65L264.567 65.6547ZM268 69.6188H269V69.246L268.756 68.9641L268 69.6188ZM0 69.6188L-0.755928 68.9641L-1 69.246V69.6188H0ZM3.43305 65.6547L4.18898 66.3093L4.18899 66.3093L3.43305 65.6547ZM3.43305 64.3453L2.67712 65L2.67712 65L3.43305 64.3453ZM0 60.3812H-1V60.754L-0.755929 61.0359L0 60.3812ZM10 -1C3.92487 -1 -1 3.92487 -1 10H1C1 5.02944 5.02944 1 10 1V-1ZM258 -1H10V1H258V-1ZM269 10.0076C269 3.93349 264.076 -1 258 -1V1C262.97 1 267 5.03607 267 10.0076H269ZM269 60.3812V10.0076H267V60.3812H269ZM265.323 65L268.756 61.0359L267.244 59.7266L263.811 63.6907L265.323 65ZM265.323 65L265.323 65L263.811 63.6907C263.16 64.4422 263.16 65.5578 263.811 66.3093L265.323 65ZM268.756 68.9641L265.323 65L263.811 66.3093L267.244 70.2734L268.756 68.9641ZM269 119.992V69.6188H267V119.992H269ZM258 131C264.076 131 269 126.067 269 119.992H267C267 124.964 262.97 129 258 129V131ZM10 131H258V129H10V131ZM-1 120C-1 126.075 3.92488 131 10 131V129C5.02944 129 1 124.971 1 120H-1ZM-1 69.6188V120H1V69.6188H-1ZM2.67713 65L-0.755928 68.9641L0.755928 70.2735L4.18898 66.3093L2.67713 65ZM2.67712 65L2.67712 65L4.18899 66.3093C4.83984 65.5578 4.83984 64.4422 4.18898 63.6907L2.67712 65ZM-0.755929 61.0359L2.67712 65L4.18898 63.6907L0.755929 59.7265L-0.755929 61.0359ZM-1 10V60.3812H1V10H-1Z" fill="#DF212D" mask="url(#path-1-inside-1)"/>
</svg>
