<svg width="296" height="144" viewBox="0 0 296 144" fill="none" xmlns="http://www.w3.org/2000/svg">
<mask id="mask0" mask-type="alpha" maskUnits="userSpaceOnUse" x="0" y="0" width="296" height="144">
<path fill-rule="evenodd" clip-rule="evenodd" d="M0 10C0 4.47715 4.47715 0 10 0H286C291.523 0 296 4.48039 296 10.0032V66.4893C295.938 66.5258 295.878 66.57 295.821 66.6224L290.795 71.2654C290.367 71.6614 290.367 72.3386 290.795 72.7346L295.821 77.3776C295.878 77.43 295.938 77.4742 296 77.5107V133.997C296 139.52 291.523 144 286 144H10C4.47716 144 0 139.523 0 134V77.5107C0.061972 77.4742 0.121822 77.43 0.178553 77.3776L5.20483 72.7346C5.63343 72.3386 5.63342 71.6614 5.20483 71.2654L0.178553 66.6224C0.121822 66.57 0.0619718 66.5258 0 66.4893V10Z" fill="white"/>
</mask>
<g mask="url(#mask0)">
<path d="M0 10C0 4.47715 4.47715 0 10 0H286C291.523 0 296 4.48039 296 10.0032C296 56.914 296 87.086 296 133.997C296 139.52 291.523 144 286 144H10C4.47716 144 0 139.523 0 134V10Z" fill="white"/>
</g>
</svg>
